<?xml version="1.0" encoding="UTF-8"?>
<svg width="240px" height="57px" viewBox="0 0 240 57" version="1.1" xmlns="http://www.w3.org/2000/svg" xmlns:xlink="http://www.w3.org/1999/xlink">
    <title>logo2021</title>
    <g id="Page-1" stroke="none" stroke-width="1" fill="none" fill-rule="evenodd">
        <g id="Index" transform="translate(-100.000000, -50.000000)" fill-rule="nonzero">
            <g id="logo2021" transform="translate(100.000000, 50.000000)">
                <g id="Group">
                    <g transform="translate(17.606178, 0.000000)" id="Path">
                        <polygon fill="#F48120" points="0.277992278 0 12.6023166 21.2370968 12.6023166 7.07903226"></polygon>
                        <polygon fill="#C64A1B" points="24.9266409 0 12.6023166 21.2370968 12.6023166 7.07903226"></polygon>
                        <polygon fill="#F9A64A" points="0.277992278 0 24.9266409 0 12.6023166 7.07903226"></polygon>
                    </g>
                    <g transform="translate(36.138996, 7.354839)" id="Path">
                        <polygon fill="#F9A64A" points="16.6795367 0 0.0926640927 18.2032258 13.7142857 13.8822581"></polygon>
                        <polygon fill="#C64A1B" points="24.2779923 23.3516129 0.0926640927 18.2032258 13.7142857 13.8822581"></polygon>
                        <polygon fill="#F48120" points="16.6795367 0 24.2779923 23.3516129 13.7142857 13.8822581"></polygon>
                    </g>
                    <g transform="translate(33.359073, 32.177419)" id="Path">
                        <polygon fill="#F48120" points="23.1660232 10.3887097 0.648648649 0.459677419 8.98841699 11.8596774"></polygon>
                        <polygon fill="#F9A64A" points="3.15057915 24.8225806 0.648648649 0.459677419 8.98841699 11.8596774"></polygon>
                        <polygon fill="#C64A1B" points="23.1660232 10.3887097 3.15057915 24.8225806 8.98841699 11.8596774"></polygon>
                    </g>
                    <g transform="translate(0.000000, 7.354839)" id="Path">
                        <polygon fill="#F48120" points="7.69111969 0 24.1853282 18.2032258 10.6563707 13.8822581"></polygon>
                        <polygon fill="#C64A1B" points="0.0926640927 23.3516129 24.1853282 18.2032258 10.6563707 13.8822581"></polygon>
                        <polygon fill="#F9A64A" points="7.69111969 0 0.0926640927 23.3516129 10.6563707 13.8822581"></polygon>
                    </g>
                    <g transform="translate(3.706564, 32.177419)" id="Path">
                        <polygon fill="#F9A64A" points="0.277992278 10.3887097 22.7953668 0.459677419 14.4555985 11.8596774"></polygon>
                        <polygon fill="#C64A1B" points="20.2007722 24.8225806 22.7953668 0.459677419 14.4555985 11.8596774"></polygon>
                        <polygon fill="#F48120" points="0.277992278 10.3887097 20.2007722 24.8225806 14.4555985 11.8596774"></polygon>
                    </g>
                </g>
                <path d="M120.741313,18.1112903 L119.073359,10.5725806 L110.918919,10.5725806 L112.679537,18.1112903 L120.741313,18.1112903 Z M120.741313,9.00967742 L119.073359,1.47096774 L110.918919,1.47096774 L112.679537,9.00967742 L120.741313,9.00967742 Z M215.53668,21.6967742 L215.53668,40.6354839 L239.814672,40.6354839 L239.814672,21.6967742 L215.53668,21.6967742 Z M231.84556,36.4064516 L223.69112,36.4064516 L223.69112,32.8209677 L231.84556,32.8209677 L231.84556,36.4064516 Z M231.84556,28.683871 L223.69112,28.683871 L223.69112,25.833871 L231.84556,25.833871 L231.84556,28.683871 Z M199.783784,40.5435484 L213.776062,40.5435484 L213.776062,1.47096774 L199.783784,1.47096774 L199.783784,40.5435484 Z M205.714286,5.79193548 L207.660232,5.79193548 L207.660232,36.4983871 L205.714286,36.4983871 L205.714286,5.79193548 Z M239.53668,1.47096774 L215.444015,1.47096774 L215.444015,19.6741935 L239.53668,19.6741935 L239.53668,1.47096774 Z M231.567568,15.5370968 L223.413127,15.5370968 L223.413127,12.5032258 L231.567568,12.5032258 L231.567568,15.5370968 Z M231.567568,8.55 L223.413127,8.55 L223.413127,5.51612903 L231.567568,5.51612903 L231.567568,8.55 Z M106.841699,15.3532258 L106.841699,10.5725806 L91.1814672,10.5725806 L91.1814672,1.47096774 L82.1003861,1.47096774 L82.1003861,10.5725806 L66.7181467,10.5725806 L66.7181467,15.3532258 L80.988417,15.3532258 L66.3474903,40.4516129 L76.4478764,40.4516129 L86.8262548,22.8 L97.7606178,40.4516129 L107.583012,40.4516129 L92.4787645,15.3532258 L106.841699,15.3532258 Z M148.633205,33.1887097 L148.633205,28.7758065 L152.525097,28.7758065 L147.243243,18.1112903 L151.69112,18.1112903 L151.69112,13.7903226 L146.594595,13.7903226 L146.594595,9.00967742 L151.135135,9.00967742 L151.135135,4.68870968 L146.594595,4.68870968 L146.594595,1.47096774 L138.625483,1.47096774 L138.625483,4.68870968 L133.899614,4.68870968 L133.899614,1.47096774 L126.023166,1.47096774 L126.023166,4.68870968 L121.389961,4.68870968 L121.389961,9.00967742 L126.023166,9.00967742 L126.023166,13.7903226 L121.297297,13.7903226 L121.297297,18.1112903 L125.189189,18.1112903 L120.926641,26.2935484 L121.57529,19.6741935 L113.698842,19.6741935 L111.382239,40.4516129 L119.258687,40.4516129 L120.741313,28.683871 L123.6139,28.683871 L123.6139,40.5435484 L150.949807,40.4516129 L150.949807,36.1306452 L131.397683,36.1306452 L131.397683,33.0967742 L148.633205,33.0967742 L148.633205,33.1887097 Z M133.899614,9.00967742 L138.625483,9.00967742 L138.625483,13.7903226 L133.899614,13.7903226 L133.899614,9.00967742 Z M133.992278,18.1112903 L138.34749,18.1112903 L139.644788,20.8693548 L132.880309,20.8693548 L133.992278,18.1112903 Z M131.397683,25.1903226 L140.849421,25.1903226 L140.849421,28.7758065 L131.397683,28.7758065 L131.397683,25.1903226 Z M175.042471,1.47096774 L156.416988,1.47096774 L156.416988,40.6354839 L164.108108,40.6354839 L164.108108,18.1112903 L175.042471,18.1112903 L175.042471,1.47096774 L175.042471,1.47096774 Z M167.351351,14.25 L164.015444,14.25 L164.015444,12.0435484 L167.351351,12.0435484 L167.351351,14.25 Z M167.351351,7.9983871 L164.015444,7.9983871 L164.015444,5.79193548 L167.351351,5.79193548 L167.351351,7.9983871 Z M176.710425,18.1112903 L187.644788,18.1112903 L187.644788,40.5435484 L195.428571,40.5435484 L195.428571,1.47096774 L176.803089,1.47096774 L176.803089,18.1112903 L176.710425,18.1112903 Z M184.30888,5.79193548 L187.644788,5.79193548 L187.644788,7.9983871 L184.30888,7.9983871 L184.30888,5.79193548 Z M184.30888,12.1354839 L187.644788,12.1354839 L187.644788,14.3419355 L184.30888,14.3419355 L184.30888,12.1354839 Z M184.216216,23.9032258 L186.440154,23.9032258 L186.440154,19.766129 L165.312741,19.766129 L165.312741,23.9032258 L167.53668,23.9032258 L167.53668,29.0516129 L165.034749,29.0516129 L165.034749,33.1887097 L167.53668,33.1887097 L167.53668,40.6354839 L174.671815,40.6354839 L174.671815,33.1887097 L177.081081,33.1887097 L177.081081,40.6354839 L184.216216,40.6354839 L184.216216,33.1887097 L186.718147,33.1887097 L186.718147,29.0516129 L184.216216,29.0516129 L184.216216,23.9032258 L184.216216,23.9032258 Z M177.081081,29.0516129 L174.671815,29.0516129 L174.671815,23.9032258 L177.081081,23.9032258 L177.081081,29.0516129 Z" id="Shape" fill="#FFFFFF"></path>
                <g id="Group" transform="translate(65.791506, 44.129032)" fill="#FFFFFF">
                    <polygon id="Path" points="6.94980695 5.05645161 5.93050193 0.643548387 0.185328185 0.643548387 0.185328185 11.4 3.98455598 11.4 3.98455598 4.41290323 5.37451737 11.4 5.46718147 11.4 8.52509653 11.4 8.52509653 11.4 9.91505792 4.68870968 9.91505792 11.4 13.7142857 11.4 13.7142857 0.643548387 8.06177606 0.643548387"></polygon>
                    <polygon id="Path" points="80.3397683 3.76935484 83.4903475 3.76935484 83.4903475 11.4 87.1969112 11.4 87.1969112 3.76935484 90.3474903 3.76935484 90.3474903 0.643548387 80.3397683 0.643548387"></polygon>
                    <path d="M47.8146718,0.643548387 L47.8146718,11.4919355 L51.6138996,11.4919355 L51.6138996,9.37741935 L57.7297297,9.37741935 L57.7297297,0.735483871 L57.7297297,0.735483871 L47.8146718,0.735483871 L47.8146718,0.643548387 Z M53.9305019,6.15967742 L51.6138996,6.15967742 L51.6138996,3.76935484 L53.9305019,3.76935484 L53.9305019,6.15967742 Z" id="Shape"></path>
                    <path d="M79.5057915,9.28548387 L79.5057915,0.643548387 L79.5057915,0.643548387 L69.5907336,0.643548387 L69.5907336,11.4919355 L73.3899614,11.4919355 L73.3899614,9.37741935 L74.1312741,9.37741935 L75.7065637,11.4919355 L79.5057915,11.4919355 L77.9305019,9.37741935 L79.5057915,9.37741935 L79.5057915,9.28548387 Z M75.7065637,6.15967742 L73.3899614,6.15967742 L73.3899614,3.76935484 L75.7065637,3.76935484 L75.7065637,6.15967742 Z" id="Shape"></path>
                    <path d="M38.1776062,0.643548387 L37.0656371,11.4 L40.8648649,11.4 L41.0501931,9.37741935 L42.9034749,9.37741935 L43.0888031,11.4 L46.8880309,11.4 L45.7760618,0.551612903 L38.1776062,0.551612903 L38.1776062,0.643548387 Z M41.3281853,6.2516129 L41.6061776,3.76935484 L42.3474903,3.76935484 L42.6254826,6.2516129 L41.3281853,6.2516129 Z" id="Shape"></path>
                    <path d="M58.7490347,0.643548387 L58.7490347,11.4919355 L68.6640927,11.4919355 L68.6640927,0.643548387 L68.6640927,0.643548387 L58.7490347,0.643548387 Z M64.8648649,8.27419355 L62.5482625,8.27419355 L62.5482625,3.76935484 L64.8648649,3.76935484 L64.8648649,8.27419355 Z" id="Shape"></path>
                    <polygon id="Path" points="15.011583 11.4 24.9266409 11.4 24.9266409 8.27419355 18.8108108 8.27419355 18.8108108 7.26290323 24.9266409 7.26290323 24.9266409 4.78064516 18.8108108 4.78064516 18.8108108 3.76935484 24.9266409 3.76935484 24.9266409 0.643548387 15.011583 0.643548387"></polygon>
                    <polygon id="Path" points="26.1312741 11.4 36.046332 11.4 36.046332 4.78064516 31.2277992 4.78064516 31.2277992 7.26290323 32.2471042 7.26290323 32.2471042 8.27419355 29.9305019 8.27419355 29.9305019 3.76935484 36.046332 3.76935484 36.046332 0.643548387 26.1312741 0.643548387"></polygon>
                    <path d="M126.857143,3.76935484 L130.007722,3.76935484 L130.007722,11.4919355 L133.80695,11.4919355 L133.80695,3.76935484 L136.957529,3.76935484 L136.957529,0.643548387 L126.949807,0.643548387 L126.949807,3.76935484 L126.857143,3.76935484 Z M154.007722,0.643548387 L152.895753,11.4 L156.694981,11.4 L156.880309,9.37741935 L158.733591,9.37741935 L158.918919,11.4 L162.718147,11.4 L161.606178,0.551612903 L154.007722,0.551612903 L154.007722,0.643548387 Z M157.250965,6.2516129 L157.528958,3.76935484 L158.27027,3.76935484 L158.548263,6.2516129 L157.250965,6.2516129 Z M147.984556,8.27419355 L147.243243,8.27419355 L146.409266,0.643548387 L142.702703,0.643548387 L143.814672,11.4919355 L151.413127,11.4919355 L152.525097,0.643548387 L148.725869,0.643548387 L147.984556,8.27419355 Z M167.629344,0.643548387 L163.830116,0.643548387 L163.830116,11.4 L173.745174,11.4 L173.745174,8.27419355 L167.629344,8.27419355 L167.629344,0.643548387 Z M137.791506,11.4 L141.590734,11.4 L141.590734,0.643548387 L137.791506,0.643548387 L137.791506,11.4 Z M104.895753,11.4 L114.810811,11.4 L114.810811,8.27419355 L108.694981,8.27419355 L108.694981,7.26290323 L114.810811,7.26290323 L114.810811,4.78064516 L108.694981,4.78064516 L108.694981,3.76935484 L114.810811,3.76935484 L114.810811,0.643548387 L104.895753,0.643548387 L104.895753,11.4 Z M93.96139,11.4 L97.7606178,11.4 L97.7606178,7.26290323 L103.876448,7.26290323 L103.876448,4.78064516 L97.7606178,4.78064516 L97.7606178,3.76935484 L103.876448,3.76935484 L103.876448,0.643548387 L93.96139,0.643548387 L93.96139,11.4 Z M116.015444,7.26290323 L122.131274,7.26290323 L122.131274,8.27419355 L116.015444,8.27419355 L116.015444,11.4 L125.930502,11.4 L125.930502,4.78064516 L119.814672,4.78064516 L119.814672,3.76935484 L125.930502,3.76935484 L125.930502,0.643548387 L116.015444,0.643548387 L116.015444,7.26290323 Z" id="Shape"></path>
                </g>
            </g>
        </g>
    </g>
</svg>